<svg version="1.1" id="Layer_1" xmlns="http://www.w3.org/2000/svg" xmlns:xlink="http://www.w3.org/1999/xlink" x="0px" y="0px"
	 width="100%" viewBox="0 0 212 208" enable-background="new 0 0 222 208" xml:space="preserve">
<path fill="transparent" opacity="1.000000" stroke="none" 
	d="
M157.000000,209.000000 
	C104.666672,209.000000 52.833340,209.000000 1.000007,209.000000 
	C1.000005,139.666672 1.000005,70.333351 1.000002,1.000016 
	C74.999992,1.000011 148.999985,1.000011 222.999969,1.000005 
	C222.999985,70.333321 222.999985,139.666641 223.000000,208.999969 
	C201.166672,209.000000 179.333328,209.000000 157.000000,209.000000 
M187.947510,80.667542 
	C183.125122,75.422226 178.469345,70.005470 173.367798,65.047386 
	C172.026627,63.743916 169.121857,63.045055 167.249847,63.466496 
	C159.306808,65.254684 150.955872,76.234871 151.049042,84.500664 
	C151.114761,90.330391 151.609024,96.155281 151.957275,102.854080 
	C147.144531,95.422546 146.550583,87.940735 145.895691,80.391472 
	C145.669037,77.778793 144.426987,75.165108 143.255997,72.741669 
	C140.682999,67.416718 136.450531,62.469589 135.436401,56.905144 
	C133.427063,45.880157 126.717514,38.535122 118.998009,31.689718 
	C116.894379,29.824280 113.758514,28.391262 110.978790,28.157377 
	C102.716003,27.462147 94.413887,27.590967 86.606781,31.151184 
	C74.810570,36.530521 66.508881,44.792374 64.983200,58.251045 
	C64.489853,62.603104 65.480484,67.156845 64.751099,71.441063 
	C63.572674,78.362823 62.247147,85.424423 59.653671,91.893753 
	C57.089153,98.290855 52.876488,104.027229 49.386791,110.053436 
	C48.621979,109.890358 47.857170,109.727272 47.092358,109.564194 
	C47.385757,105.679932 47.239395,101.700226 48.057762,97.929916 
	C50.224445,87.947762 49.574780,78.561005 43.494099,70.012657 
	C39.675713,64.644691 34.006168,63.102795 29.041212,67.551712 
	C17.768856,77.652458 8.134194,89.049133 7.004763,105.241264 
	C6.718117,109.350777 5.285019,113.720566 6.230138,117.508850 
	C8.604721,127.026794 14.439530,134.718048 21.921839,140.970123 
	C28.996998,146.881989 36.531780,152.248169 43.540478,158.233658 
	C48.413673,162.395416 51.305294,163.456558 56.843426,160.551453 
	C59.586006,159.112823 60.975433,159.861206 63.196972,161.615814 
	C75.707001,171.496536 88.857719,179.785385 106.031937,176.090393 
	C107.614090,175.750000 109.348656,176.169556 111.010132,176.132568 
	C112.874466,176.091064 114.934006,176.412827 116.565414,175.741959 
	C124.440475,172.503571 132.117126,168.771622 140.045929,165.681107 
	C142.776077,164.616913 146.059128,165.053818 149.041901,164.532196 
	C152.114304,163.994904 155.394058,163.648697 158.104218,162.274490 
	C161.891632,160.354065 165.010834,157.106079 168.810303,155.220947 
	C180.381729,149.479767 190.081757,141.341995 199.125885,132.341202 
	C201.997284,129.483551 203.685822,126.005440 202.180099,121.629723 
	C201.492859,119.632530 201.427460,117.424843 201.043060,115.319374 
	C198.832855,103.212936 194.186523,92.027016 187.947510,80.667542 
z"/>
<path fill="#fff" opacity="1.000000" stroke="none" 
	d="
M188.065216,81.011734 
	C194.186523,92.027016 198.832855,103.212936 201.043060,115.319374 
	C201.427460,117.424843 201.492859,119.632530 202.180099,121.629723 
	C203.685822,126.005440 201.997284,129.483551 199.125885,132.341202 
	C190.081757,141.341995 180.381729,149.479767 168.810303,155.220947 
	C165.010834,157.106079 161.891632,160.354065 158.104218,162.274490 
	C155.394058,163.648697 152.114304,163.994904 149.041901,164.532196 
	C146.059128,165.053818 142.776077,164.616913 140.045929,165.681107 
	C132.117126,168.771622 124.440475,172.503571 116.565414,175.741959 
	C114.934006,176.412827 112.874466,176.091064 111.010132,176.132568 
	C109.348656,176.169556 107.614090,175.750000 106.031937,176.090393 
	C88.857719,179.785385 75.707001,171.496536 63.196972,161.615814 
	C60.975433,159.861206 59.586006,159.112823 56.843426,160.551453 
	C51.305294,163.456558 48.413673,162.395416 43.540478,158.233658 
	C36.531780,152.248169 28.996998,146.881989 21.921839,140.970123 
	C14.439530,134.718048 8.604721,127.026794 6.230138,117.508850 
	C5.285019,113.720566 6.718117,109.350777 7.004763,105.241264 
	C8.134194,89.049133 17.768856,77.652458 29.041212,67.551712 
	C34.006168,63.102795 39.675713,64.644691 43.494099,70.012657 
	C49.574780,78.561005 50.224445,87.947762 48.057762,97.929916 
	C47.239395,101.700226 47.385757,105.679932 47.092358,109.564194 
	C47.857170,109.727272 48.621979,109.890358 49.386791,110.053436 
	C52.876488,104.027229 57.089153,98.290855 59.653671,91.893753 
	C62.247147,85.424423 63.572674,78.362823 64.751099,71.441063 
	C65.480484,67.156845 64.489853,62.603104 64.983200,58.251045 
	C66.508881,44.792374 74.810570,36.530521 86.606781,31.151184 
	C94.413887,27.590967 102.716003,27.462147 110.978790,28.157377 
	C113.758514,28.391262 116.894379,29.824280 118.998009,31.689718 
	C126.717514,38.535122 133.427063,45.880157 135.436401,56.905144 
	C136.450531,62.469589 140.682999,67.416718 143.255997,72.741669 
	C144.426987,75.165108 145.669037,77.778793 145.895691,80.391472 
	C146.550583,87.940735 147.144531,95.422546 151.957275,102.854080 
	C151.609024,96.155281 151.114761,90.330391 151.049042,84.500664 
	C150.955872,76.234871 159.306808,65.254684 167.249847,63.466496 
	C169.121857,63.045055 172.026627,63.743916 173.367798,65.047386 
	C178.469345,70.005470 183.125122,75.422226 188.065216,81.011734 
z"/>
</svg>