<svg version="1.1" id="Layer_1" xmlns="http://www.w3.org/2000/svg" xmlns:xlink="http://www.w3.org/1999/xlink" x="0px" y="0px"
	 width="100%" viewBox="0 0 72 72" enable-background="new 0 0 72 72" xml:space="preserve">
<path fill="#4B6587" opacity="1.000000" stroke="none" 
	d="
M1.000000,69.000000 
	C1.000000,66.629440 1.000000,64.258888 1.028996,61.105782 
	C3.863177,57.494789 4.936105,54.244186 4.538804,50.152508 
	C4.020009,44.809616 3.730823,39.373322 4.128262,34.035694 
	C4.431023,29.969597 5.956742,25.994560 7.253788,22.130360 
	C12.402270,24.543676 17.235346,26.805649 21.891052,29.357971 
	C17.836821,32.914013 13.863455,36.073879 10.120934,39.486881 
	C8.027680,41.395824 8.180067,43.165543 10.091841,45.828876 
	C16.763857,55.123802 26.079895,60.542625 36.254524,65.451797 
	C36.592800,68.184784 36.796402,70.592392 37.000000,73.000000 
	C25.645771,73.000000 14.291543,73.000000 2.467306,72.622421 
	C1.664866,71.163231 1.332433,70.081612 1.000000,69.000000 
z"/>
<path fill="transparent" opacity="1.000000" stroke="none" 
	d="
M6.938381,21.979012 
	C5.956742,25.994560 4.431023,29.969597 4.128262,34.035694 
	C3.730823,39.373322 4.020009,44.809616 4.538804,50.152508 
	C4.936105,54.244186 3.863177,57.494789 1.028996,60.661621 
	C1.000000,41.081360 1.000000,21.162724 1.000000,1.000000 
	C16.686718,1.000000 32.374699,1.000000 48.790459,1.276421 
	C48.336620,3.002195 47.154999,4.451550 45.544495,5.942795 
	C40.085823,5.711034 35.056034,5.437382 29.642292,5.085975 
	C25.302980,2.962119 20.789827,1.133187 17.576368,5.201205 
	C13.493558,10.369759 10.437270,16.349197 6.938381,21.979012 
z"/>
<path fill="transparent" opacity="1.000000" stroke="none" 
	d="
M55.000000,1.000000 
	C60.970013,1.000000 66.940025,1.000000 73.000000,1.000000 
	C73.000000,24.020824 73.000000,47.041752 72.647873,70.507278 
	C70.553139,68.579628 68.810532,66.207382 67.057701,63.609352 
	C67.047485,63.383568 66.972206,62.937702 66.999878,62.707176 
	C67.027542,62.476654 66.912270,62.026829 67.182083,61.830780 
	C67.611969,60.083630 67.772041,58.532528 67.967056,56.650215 
	C67.911743,55.884373 67.821495,55.449738 67.873367,54.708626 
	C68.200729,53.316452 68.385986,52.230759 68.726562,50.769951 
	C68.862274,49.588112 68.842674,48.781387 68.900940,47.545113 
	C68.258392,45.880623 70.670280,42.753231 67.312592,43.176689 
	C67.779694,42.508488 67.695274,42.108456 67.736938,41.322830 
	C67.916496,40.672112 67.969971,40.406990 68.327591,39.968826 
	C72.252182,35.986893 68.897041,31.907076 69.079376,27.577497 
	C66.728943,23.408257 64.390366,19.626629 62.029610,15.454592 
	C60.793293,10.336524 60.532017,5.100211 55.217445,2.565512 
	C54.955639,2.440646 55.064003,1.539614 55.000000,1.000000 
z"/>
<path fill="#678BBA" opacity="1.000000" stroke="none" 
	d="
M67.067917,63.835140 
	C68.810532,66.207382 70.553139,68.579628 72.647873,70.975937 
	C73.611893,73.413879 71.894623,72.996346 70.552475,72.997009 
	C59.680756,73.002342 48.809036,73.000000 37.468658,73.000000 
	C36.796402,70.592392 36.592800,68.184784 36.640610,65.418350 
	C43.286449,68.149437 49.665257,67.571167 56.372574,65.012619 
	C58.006432,65.922874 59.303196,66.798492 60.221458,67.418533 
	C62.363232,66.326027 64.300133,65.338020 66.462128,64.249313 
	C66.687210,64.148621 67.067917,63.835140 67.067917,63.835140 
z"/>
<path fill="#5C7BA4" opacity="1.000000" stroke="none" 
	d="
M54.571537,1.000000 
	C55.064003,1.539614 54.955639,2.440646 55.217445,2.565512 
	C60.532017,5.100211 60.793293,10.336524 61.682899,15.497167 
	C59.905140,15.228598 58.451904,14.527042 56.949936,13.476803 
	C55.642860,9.500316 54.062469,7.484046 50.264091,10.974439 
	C49.243305,11.912461 47.112148,11.642134 44.779598,12.051211 
	C45.301418,9.362812 45.637402,7.631858 45.973381,5.900904 
	C47.154999,4.451550 48.336620,3.002195 49.259117,1.276421 
	C50.714359,1.000000 52.428715,1.000000 54.571537,1.000000 
z"/>
<path fill="#100E0B" opacity="1.000000" stroke="none" 
	d="
M1.000001,69.500000 
	C1.332433,70.081612 1.664866,71.163231 1.998649,72.622421 
	C1.666667,72.000000 1.333334,71.000000 1.000001,69.500000 
z"/>
<path fill="#254369" opacity="1.000000" stroke="none" 
	d="
M56.035480,64.977989 
	C49.665257,67.571167 43.286449,68.149437 36.505932,65.092972 
	C26.079895,60.542625 16.763857,55.123802 10.091841,45.828876 
	C8.180067,43.165543 8.027680,41.395824 10.120934,39.486881 
	C13.863455,36.073879 17.836821,32.914013 22.249678,29.288898 
	C28.209024,27.221287 33.632374,25.513100 39.476440,23.869802 
	C46.941162,23.964712 53.985161,23.994730 61.136734,24.364401 
	C63.859951,25.791073 66.475594,26.878094 69.091232,27.965113 
	C68.897041,31.907076 72.252182,35.986893 68.041519,39.916119 
	C67.257675,40.044659 67.064056,40.052860 66.902252,40.040489 
	C66.934067,40.019917 66.963066,40.089928 66.961563,39.750069 
	C66.874710,38.467499 67.087379,37.344067 66.646484,36.616940 
	C65.462044,34.663586 64.315033,32.461174 62.564171,31.135645 
	C60.433891,29.522877 57.908112,29.667002 56.138824,32.005936 
	C54.643574,31.100721 53.280972,30.586082 51.471710,30.049706 
	C48.041302,30.064533 45.057552,30.101093 41.703094,30.067406 
	C39.529194,30.623173 37.726002,31.249189 35.525490,31.927326 
	C27.040081,32.838501 21.473047,37.906498 14.681544,43.742928 
	C22.261515,49.345573 28.886969,54.698856 36.016823,59.264446 
	C38.501842,60.855724 42.232418,60.501873 45.843796,61.039017 
	C50.220768,60.925758 54.148090,60.809845 58.295158,60.755562 
	C58.960648,61.016705 59.406395,61.216213 59.711178,61.683006 
	C58.391968,62.959522 57.213726,63.968758 56.035480,64.977989 
z"/>
<path fill="#5C7BA4" opacity="1.000000" stroke="none" 
	d="
M39.055721,23.804911 
	C33.632374,25.513100 28.209024,27.221287 22.427048,28.998547 
	C17.235346,26.805649 12.402270,24.543676 7.253788,22.130360 
	C10.437270,16.349197 13.493558,10.369759 17.576368,5.201205 
	C20.789827,1.133187 25.302980,2.962119 29.681374,5.422608 
	C33.088177,11.826302 36.071949,17.815605 39.055721,23.804911 
z"/>
<path fill="#678BBB" opacity="1.000000" stroke="none" 
	d="
M39.476440,23.869802 
	C36.071949,17.815605 33.088177,11.826302 30.065323,5.500363 
	C35.056034,5.437382 40.085823,5.711034 45.544495,5.942795 
	C45.637402,7.631858 45.301418,9.362812 44.779598,12.051211 
	C47.112148,11.642134 49.243305,11.912461 50.264091,10.974439 
	C54.062469,7.484046 55.642860,9.500316 56.636200,13.549950 
	C56.095974,14.116191 55.806690,14.240492 55.553905,14.417043 
	C55.476238,14.471289 55.431896,14.742473 55.484360,14.789608 
	C58.428391,17.434973 61.384312,20.067112 65.123672,23.399879 
	C62.876484,23.742826 61.952824,23.883789 61.029160,24.024750 
	C53.985161,23.994730 46.941162,23.964712 39.476440,23.869802 
z"/>
<path fill="#FFC596" opacity="1.000000" stroke="none" 
	d="
M67.610855,41.708427 
	C67.695274,42.108456 67.779694,42.508488 67.322006,43.193504 
	C66.779892,43.478489 66.894508,43.722790 66.609802,43.801830 
	C65.935654,44.271900 65.546219,44.662930 64.763077,44.889194 
	C56.809040,44.328892 49.003830,41.343952 41.610943,46.903702 
	C40.441845,46.900127 39.662399,46.832592 38.657295,46.514015 
	C36.696918,45.862389 34.962204,45.461807 33.091728,44.682236 
	C34.638401,43.744701 36.320839,43.186153 38.350376,42.793953 
	C40.486385,42.346729 42.275299,41.733166 44.361633,41.062912 
	C45.444908,40.998154 46.230755,40.990082 47.386566,40.869385 
	C50.158047,40.863556 52.559559,40.970348 55.156013,41.433865 
	C59.221653,41.223701 63.092361,40.656815 66.963066,40.089928 
	C66.963066,40.089928 66.934067,40.019917 66.789978,40.405334 
	C66.967552,41.096645 67.289200,41.402534 67.610855,41.708427 
z"/>
<path fill="#F9F0F1" opacity="1.000000" stroke="none" 
	d="
M56.372574,65.012619 
	C57.213726,63.968758 58.391968,62.959522 59.959267,61.467762 
	C60.618214,60.655945 60.888103,60.326656 61.438484,59.902870 
	C62.229553,59.211914 62.740131,58.615459 63.494385,57.946140 
	C64.138527,57.239231 64.538986,56.605183 65.102104,55.654175 
	C65.467628,55.213726 65.670502,55.090237 66.182892,54.980606 
	C66.905350,55.001347 67.318306,55.008224 67.731255,55.015102 
	C67.821495,55.449738 67.911743,55.884373 67.636292,56.778316 
	C67.151161,58.834026 67.031715,60.430428 66.912270,62.026829 
	C66.912270,62.026829 67.027542,62.476654 66.692734,62.808186 
	C66.317627,63.543148 66.277336,63.946583 66.237038,64.350014 
	C64.300133,65.338020 62.363232,66.326027 60.221458,67.418533 
	C59.303196,66.798492 58.006432,65.922874 56.372574,65.012619 
z"/>
<path fill="#FDFAFA" opacity="1.000000" stroke="none" 
	d="
M61.136734,24.364403 
	C61.952824,23.883789 62.876484,23.742826 65.123672,23.399879 
	C61.384312,20.067112 58.428391,17.434973 55.484360,14.789608 
	C55.431896,14.742473 55.476238,14.471289 55.553905,14.417043 
	C55.806690,14.240492 56.095974,14.116191 56.684940,13.898634 
	C58.451904,14.527042 59.905140,15.228598 61.705078,15.887578 
	C64.390366,19.626629 66.728943,23.408257 69.079376,27.577497 
	C66.475594,26.878094 63.859951,25.791073 61.136734,24.364403 
z"/>
<path fill="#B9B5BC" opacity="1.000000" stroke="none" 
	d="
M66.894508,43.722790 
	C66.894508,43.722790 66.779892,43.478489 66.770485,43.461678 
	C70.670280,42.753231 68.258392,45.880623 68.623070,47.547287 
	C67.896820,47.979294 67.526306,47.979576 67.094482,47.562492 
	C66.986946,46.004349 66.940727,44.863567 66.894508,43.722790 
z"/>
<path fill="#191717" opacity="1.000000" stroke="none" 
	d="
M67.182083,61.830780 
	C67.031715,60.430428 67.151161,58.834026 67.601364,57.109524 
	C67.772041,58.532528 67.611969,60.083630 67.182083,61.830780 
z"/>
<path fill="#EBE4ED" opacity="1.000000" stroke="none" 
	d="
M67.873367,54.708626 
	C67.318306,55.008224 66.905350,55.001347 66.268219,54.688347 
	C66.298759,53.623993 66.553467,52.865765 66.925728,51.884804 
	C67.087708,51.500160 67.132126,51.338245 67.413620,51.189301 
	C67.650688,51.202274 68.118454,51.294746 68.118454,51.294746 
	C68.118454,51.294746 68.571243,51.145061 68.571243,51.145061 
	C68.385986,52.230759 68.200729,53.316452 67.873367,54.708626 
z"/>
<path fill="#A5A0A7" opacity="1.000000" stroke="none" 
	d="
M68.726562,50.769951 
	C68.571243,51.145061 68.118454,51.294746 68.118454,51.294746 
	C68.118454,51.294746 67.650688,51.202274 67.332642,50.788624 
	C66.936546,49.838047 66.858498,49.301121 66.854141,48.558468 
	C66.927826,48.352741 67.155800,47.979858 67.155800,47.979858 
	C67.526306,47.979576 67.896820,47.979294 68.545197,47.976837 
	C68.842674,48.781387 68.862274,49.588112 68.726562,50.769951 
z"/>
<path fill="#100F0E" opacity="1.000000" stroke="none" 
	d="
M67.736938,41.322830 
	C67.289200,41.402534 66.967552,41.096645 66.758163,40.425911 
	C67.064056,40.052860 67.257675,40.044659 67.737366,40.089165 
	C67.969971,40.406990 67.916496,40.672112 67.736938,41.322830 
z"/>
<path fill="#191717" opacity="1.000000" stroke="none" 
	d="
M66.462128,64.249313 
	C66.277336,63.946583 66.317627,63.543148 66.665062,63.038712 
	C66.972206,62.937702 67.047485,63.383568 67.057701,63.609352 
	C67.067917,63.835140 66.687210,64.148621 66.462128,64.249313 
z"/>
<path fill="#FED4A1" opacity="1.000000" stroke="none" 
	d="
M45.394154,61.036358 
	C42.232418,60.501873 38.501842,60.855724 36.016823,59.264446 
	C28.886969,54.698856 22.261515,49.345573 14.681544,43.742928 
	C21.473047,37.906498 27.040081,32.838501 35.947876,31.967121 
	C37.897869,31.914282 39.028164,31.873766 40.461548,31.910004 
	C41.171734,32.075577 41.578827,32.164398 41.874020,32.455788 
	C41.515484,33.047535 41.268848,33.436714 40.587479,33.875908 
	C37.749500,34.276653 35.346264,34.627388 32.700623,35.060616 
	C32.028881,35.647549 31.599550,36.151989 31.071903,37.007355 
	C30.905396,37.591747 30.837204,37.825218 30.501839,38.204819 
	C28.818529,39.373695 27.402391,40.396446 26.036606,41.860107 
	C27.172192,42.676685 28.257425,43.052353 29.260262,43.784363 
	C25.987904,48.953350 30.586422,50.586956 33.002720,53.437660 
	C33.720509,53.822083 34.298317,53.937256 34.937309,54.411095 
	C38.513592,56.546108 42.028690,58.322449 45.530075,60.336964 
	C45.516361,60.575138 45.394154,61.036358 45.394154,61.036358 
z"/>
<path fill="#040101" opacity="1.000000" stroke="none" 
	d="
M66.961563,39.750069 
	C63.092361,40.656815 59.221653,41.223701 55.178040,41.132782 
	C54.983845,40.274845 54.962559,40.074718 54.943665,39.608208 
	C54.765820,38.865349 54.585579,38.388870 54.416374,37.531284 
	C54.480991,36.144905 54.534576,35.139629 54.752136,33.966072 
	C54.979473,33.477322 55.129879,33.204880 55.564201,32.977631 
	C56.006207,32.848209 56.176334,32.655449 56.271465,32.396515 
	C57.908112,29.667002 60.433891,29.522877 62.564171,31.135645 
	C64.315033,32.461174 65.462044,34.663586 66.646484,36.616940 
	C67.087379,37.344067 66.874710,38.467499 66.961563,39.750069 
M60.182079,34.900612 
	C59.935589,35.360527 59.689095,35.820446 59.442604,36.280361 
	C60.055981,35.978577 60.669361,35.676792 61.974300,35.268253 
	C62.159031,34.851448 62.343761,34.434643 62.528496,34.017841 
	C61.916870,34.272068 61.305241,34.526295 60.182079,34.900612 
z"/>
<path fill="#F8CD9C" opacity="1.000000" stroke="none" 
	d="
M42.073803,30.137655 
	C45.057552,30.101093 48.041302,30.064533 51.500233,30.289307 
	C51.975414,30.550644 51.936607,31.031790 51.590714,31.208838 
	C49.169594,31.542768 47.094372,31.699654 44.857082,31.572071 
	C43.838459,31.131121 42.981903,30.974636 42.098213,30.649109 
	C42.071087,30.480062 42.073803,30.137655 42.073803,30.137655 
z"/>
<path fill="#705B46" opacity="1.000000" stroke="none" 
	d="
M45.843796,61.039017 
	C45.394154,61.036358 45.516361,60.575138 45.736900,60.143463 
	C46.877228,59.511196 47.797024,59.310596 49.055187,59.358150 
	C51.389637,59.728817 53.385719,59.851334 55.727509,59.980061 
	C56.740620,60.222157 57.408016,60.458042 58.075417,60.693932 
	C54.148090,60.809845 50.220768,60.925758 45.843796,61.039017 
z"/>
<path fill="#361811" opacity="1.000000" stroke="none" 
	d="
M58.295158,60.755562 
	C57.408016,60.458042 56.740620,60.222157 55.730465,59.787010 
	C55.387711,59.587746 55.472618,59.210773 55.855255,59.197296 
	C57.877930,59.455006 59.517960,59.726189 61.157993,59.997368 
	C60.888103,60.326656 60.618214,60.655945 60.100235,61.200478 
	C59.406395,61.216213 58.960648,61.016705 58.295158,60.755562 
z"/>
<path fill="#854F29" opacity="1.000000" stroke="none" 
	d="
M51.936607,31.031790 
	C51.936607,31.031790 51.975414,30.550644 51.946892,30.311043 
	C53.280972,30.586082 54.643574,31.100721 56.138824,32.005936 
	C56.176334,32.655449 56.006207,32.848209 55.399963,32.632702 
	C54.042107,32.338501 53.045372,32.386402 52.010086,32.084518 
	C51.959892,31.500418 51.948250,31.266104 51.936607,31.031790 
z"/>
<path fill="#A98968" opacity="1.000000" stroke="none" 
	d="
M41.703094,30.067406 
	C42.073803,30.137655 42.071087,30.480062 41.814301,30.710167 
	C41.091160,31.237932 40.624809,31.535591 40.158455,31.833252 
	C39.028164,31.873766 37.897869,31.914282 36.345192,31.915001 
	C37.726002,31.249189 39.529194,30.623173 41.703094,30.067406 
z"/>
<path fill="#FFD19F" opacity="1.000000" stroke="none" 
	d="
M42.000599,46.839741 
	C49.003830,41.343952 56.809040,44.328892 64.603882,45.242821 
	C64.642410,45.929893 64.446442,46.098572 64.035477,46.414368 
	C62.593128,46.934711 61.365780,47.307938 59.768513,47.809570 
	C58.623787,48.008274 57.848988,48.078564 56.727066,48.114601 
	C56.157394,48.147743 55.934841,48.215141 55.358337,48.262451 
	C54.060196,48.270519 53.116005,48.298676 51.723480,48.194038 
	C50.026352,48.030430 48.777561,47.999615 47.197304,47.927696 
	C45.992489,47.946590 45.119144,48.006588 43.987335,47.872143 
	C43.152782,47.398380 42.576691,47.119061 42.000599,46.839741 
z"/>
<path fill="#040101" opacity="1.000000" stroke="none" 
	d="
M32.943024,34.978123 
	C35.346264,34.627388 37.749500,34.276653 40.812370,33.955429 
	C41.471996,33.984940 41.944874,34.048149 42.072807,34.371078 
	C42.841461,36.369995 43.482185,38.045982 44.084469,40.070381 
	C44.052090,40.652393 44.058147,40.885998 44.064209,41.119602 
	C42.275299,41.733166 40.486385,42.346729 38.297466,42.465256 
	C36.245979,39.639519 34.594501,37.308819 32.943024,34.978123 
z"/>
<path fill="#F85900" opacity="1.000000" stroke="none" 
	d="
M32.862740,53.168419 
	C30.586422,50.586956 25.987904,48.953350 29.506840,43.774223 
	C29.835815,43.407749 30.328985,43.381226 30.445496,43.664368 
	C31.450504,44.318745 32.338997,44.689983 33.227493,45.061226 
	C34.962204,45.461807 36.696918,45.862389 38.810371,46.813549 
	C39.781574,47.651779 40.374039,47.939434 40.975327,48.427002 
	C40.984158,48.626919 40.997707,49.027542 41.000130,49.223701 
	C41.002548,49.419857 41.006599,49.812176 40.666531,49.867088 
	C39.867733,49.945271 39.409008,49.968536 38.977074,49.981926 
	C39.003864,49.972050 39.026478,50.024490 38.795799,49.722542 
	C37.551605,49.270092 36.538097,49.119591 35.199654,48.940426 
	C34.323246,49.362980 33.771763,49.814198 33.220314,50.468628 
	C33.239174,50.942177 33.303360,51.201271 33.262028,51.874680 
	C33.028347,52.589634 32.945541,52.879025 32.862740,53.168419 
z"/>
<path fill="#050203" opacity="1.000000" stroke="none" 
	d="
M33.091728,44.682236 
	C32.338997,44.689983 31.450504,44.318745 30.562511,43.655098 
	C30.563013,43.362694 30.703438,43.179058 31.116795,43.094231 
	C31.645239,42.342815 31.760328,41.676228 31.935608,40.595333 
	C31.720606,39.006161 31.445412,37.831295 31.170216,36.656429 
	C31.599550,36.151989 32.028881,35.647549 32.700623,35.060616 
	C34.594501,37.308819 36.245979,39.639519 37.950367,42.298912 
	C36.320839,43.186153 34.638401,43.744701 33.091728,44.682236 
z"/>
<path fill="#2C211C" opacity="1.000000" stroke="none" 
	d="
M54.941273,39.874588 
	C54.962559,40.074718 54.983845,40.274845 54.983105,40.776058 
	C52.559559,40.970348 50.158047,40.863556 47.267242,40.458588 
	C46.682396,39.891495 46.586830,39.622581 46.513306,39.335773 
	C46.535351,39.317879 46.591244,39.309238 46.826118,39.426636 
	C47.368198,39.408760 47.675396,39.273491 48.217388,39.120579 
	C48.743916,39.243042 49.050568,39.294800 49.704216,39.502388 
	C51.671288,39.789238 53.306282,39.831913 54.941273,39.874588 
z"/>
<path fill="#20100B" opacity="1.000000" stroke="none" 
	d="
M64.250481,46.267250 
	C64.446442,46.098572 64.642410,45.929893 64.997574,45.407585 
	C65.546219,44.662930 65.935654,44.271900 66.609802,43.801830 
	C66.940727,44.863567 66.986946,46.004349 67.094482,47.562492 
	C67.155800,47.979858 66.927826,48.352741 66.626266,48.453705 
	C66.097748,48.310638 65.870796,48.066612 65.673126,47.503624 
	C65.218430,46.878860 64.734459,46.573055 64.250481,46.267250 
z"/>
<path fill="#220804" opacity="1.000000" stroke="none" 
	d="
M40.966499,48.227089 
	C40.374039,47.939434 39.781574,47.651779 39.036034,47.064590 
	C39.662399,46.832592 40.441845,46.900127 41.610943,46.903702 
	C42.576691,47.119061 43.152782,47.398380 43.912346,47.797409 
	C44.095818,47.917118 43.905483,48.009892 43.537407,47.991219 
	C42.435055,48.057396 41.700775,48.142242 40.966499,48.227089 
z"/>
<path fill="#381B11" opacity="1.000000" stroke="none" 
	d="
M46.491264,39.353668 
	C46.586830,39.622581 46.682396,39.891495 46.897282,40.571209 
	C46.230755,40.990082 45.444908,40.998154 44.361633,41.062912 
	C44.058147,40.885998 44.052090,40.652393 44.392525,40.116234 
	C45.323101,39.660343 45.907181,39.507004 46.491264,39.353668 
z"/>
<path fill="#F95900" opacity="1.000000" stroke="none" 
	d="
M61.438484,59.902870 
	C59.517960,59.726189 57.877930,59.455006 55.371422,59.135521 
	C52.575573,59.094810 50.646194,59.102406 48.716816,59.110001 
	C47.797024,59.310596 46.877228,59.511196 45.750610,59.905289 
	C42.028690,58.322449 38.513592,56.546108 35.265778,54.392696 
	C35.970200,54.011627 36.407341,54.007626 37.187531,54.045235 
	C38.831158,54.383972 40.131741,54.681095 41.792084,55.027866 
	C43.890247,55.672062 45.628643,56.266609 47.842117,56.918365 
	C50.186928,56.916260 52.056660,56.856941 54.321106,56.782043 
	C57.173328,56.077938 59.630825,55.389416 62.310394,55.244003 
	C62.771877,56.531078 63.011292,57.275043 63.250710,58.019005 
	C62.740131,58.615459 62.229553,59.211914 61.438484,59.902870 
z"/>
<path fill="#A5461E" opacity="1.000000" stroke="none" 
	d="
M66.808174,52.107533 
	C66.553467,52.865765 66.298759,53.623993 65.958710,54.674484 
	C65.670502,55.090237 65.467628,55.213726 64.870575,55.328346 
	C63.956337,54.012814 63.436287,52.706154 63.214001,51.265579 
	C63.791531,50.798389 64.071297,50.465111 64.628670,50.153214 
	C65.540245,50.818901 66.174210,51.463215 66.808174,52.107533 
z"/>
<path fill="#FA5800" opacity="1.000000" stroke="none" 
	d="
M62.916237,51.399498 
	C63.436287,52.706154 63.956337,54.012814 64.707916,55.645302 
	C64.538986,56.605183 64.138527,57.239231 63.494385,57.946144 
	C63.011292,57.275043 62.771877,56.531078 62.409760,55.143368 
	C62.399162,54.100773 62.511261,53.701916 62.353844,53.050488 
	C61.689732,52.531944 61.295132,52.265976 60.936726,52.008469 
	C60.972919,52.016933 60.938427,52.082783 61.040489,51.788567 
	C61.733784,51.462730 62.325008,51.431114 62.916237,51.399498 
z"/>
<path fill="#7E3518" opacity="1.000000" stroke="none" 
	d="
M66.925728,51.884804 
	C66.174210,51.463215 65.540245,50.818901 64.561905,49.838596 
	C64.182220,49.291508 64.146896,49.080406 64.290833,48.717655 
	C64.861336,48.318203 65.252594,48.070396 65.643845,47.822586 
	C65.870796,48.066612 66.097748,48.310638 66.552582,48.659431 
	C66.858498,49.301121 66.936546,49.838047 67.095573,50.775650 
	C67.132126,51.338245 67.087708,51.500160 66.925728,51.884804 
z"/>
<path fill="#FAF7F8" opacity="1.000000" stroke="none" 
	d="
M31.875418,41.009640 
	C31.760328,41.676228 31.645239,42.342815 30.848537,42.851242 
	C28.773365,42.268452 27.379810,41.843826 25.986254,41.419197 
	C27.402391,40.396446 28.818529,39.373695 30.582144,38.522095 
	C31.244886,39.465378 31.560152,40.237511 31.875418,41.009640 
z"/>
<path fill="#F35900" opacity="1.000000" stroke="none" 
	d="
M36.844479,54.003624 
	C36.407341,54.007626 35.970200,54.011627 35.204594,54.034027 
	C34.298317,53.937256 33.720509,53.822083 33.002720,53.437660 
	C32.945541,52.879025 33.028347,52.589634 33.542957,51.983097 
	C34.972839,51.946857 35.970917,52.227764 36.896225,52.878941 
	C36.830456,53.500679 36.837467,53.752151 36.844479,54.003624 
z"/>
<path fill="#574534" opacity="1.000000" stroke="none" 
	d="
M40.461548,31.910004 
	C40.624809,31.535591 41.091160,31.237932 41.841431,30.879213 
	C42.981903,30.974636 43.838459,31.131121 44.897888,31.814793 
	C45.100761,32.341980 45.055397,32.832115 44.736794,32.840229 
	C43.607437,32.649967 42.796677,32.451595 41.985920,32.253220 
	C41.578827,32.164398 41.171734,32.075577 40.461548,31.910004 
z"/>
<path fill="#FFDCB3" opacity="1.000000" stroke="none" 
	d="
M41.874020,32.455788 
	C42.796677,32.451595 43.607437,32.649967 44.999359,32.978271 
	C45.830719,33.398598 46.080921,33.688988 45.889671,33.996933 
	C44.280437,34.025703 43.112656,34.036926 41.944874,34.048149 
	C41.944874,34.048149 41.471996,33.984940 41.247105,33.905418 
	C41.268848,33.436714 41.515484,33.047535 41.874020,32.455788 
z"/>
<path fill="#523524" opacity="1.000000" stroke="none" 
	d="
M26.036606,41.860107 
	C27.379810,41.843826 28.773365,42.268452 30.435181,42.936069 
	C30.703438,43.179058 30.563013,43.362694 30.445999,43.371960 
	C30.328985,43.381226 29.835815,43.407749 29.589237,43.417885 
	C28.257425,43.052353 27.172192,42.676685 26.036606,41.860107 
z"/>
<path fill="#DDD6DC" opacity="1.000000" stroke="none" 
	d="
M31.935608,40.595333 
	C31.560152,40.237511 31.244886,39.465378 30.849316,38.375969 
	C30.837204,37.825218 30.905396,37.591747 31.071903,37.007355 
	C31.445412,37.831295 31.720606,39.006161 31.935608,40.595333 
z"/>
<path fill="#FCFAFA" opacity="1.000000" stroke="none" 
	d="
M49.372135,39.258209 
	C49.050568,39.294800 48.743916,39.243042 47.984421,38.959190 
	C47.330143,38.785072 47.143627,38.754692 46.984894,38.576744 
	C47.012676,38.429176 47.050491,38.131245 47.302124,37.977127 
	C48.055252,37.031105 48.556751,36.239197 49.170647,35.108330 
	C50.277199,34.168118 51.271355,33.566864 52.521423,33.174004 
	C53.380939,33.633045 53.984547,33.883701 54.588158,34.134357 
	C54.534576,35.139629 54.480991,36.144905 53.986290,37.586456 
	C52.154160,38.434559 50.763145,38.846382 49.372135,39.258209 
z"/>
<path fill="#E8EFE9" opacity="1.000000" stroke="none" 
	d="
M49.704216,39.502388 
	C50.763145,38.846382 52.154160,38.434559 53.975250,37.967564 
	C54.585579,38.388870 54.765820,38.865349 54.943665,39.608208 
	C53.306282,39.831913 51.671288,39.789238 49.704216,39.502388 
z"/>
<path fill="#F2E5E5" opacity="1.000000" stroke="none" 
	d="
M54.752132,33.966072 
	C53.984547,33.883701 53.380939,33.633045 52.393036,33.071335 
	C52.008739,32.760281 52.048641,32.434303 52.048641,32.434303 
	C53.045372,32.386402 54.042107,32.338501 55.203079,32.635529 
	C55.129879,33.204880 54.979473,33.477322 54.752132,33.966072 
z"/>
<path fill="#33241D" opacity="1.000000" stroke="none" 
	d="
M61.282738,35.375008 
	C60.669361,35.676792 60.055981,35.978577 59.442604,36.280361 
	C59.689095,35.820446 59.935589,35.360527 60.594486,34.979912 
	C61.006893,35.059216 61.282738,35.375008 61.282738,35.375008 
z"/>
<path fill="#33241D" opacity="1.000000" stroke="none" 
	d="
M60.850254,34.919868 
	C61.305241,34.526295 61.916870,34.272068 62.528496,34.017841 
	C62.343761,34.434643 62.159031,34.851448 61.628517,35.321632 
	C61.282738,35.375008 61.006893,35.059216 60.850254,34.919868 
z"/>
<path fill="#1B0F07" opacity="1.000000" stroke="none" 
	d="
M52.010086,32.084518 
	C52.048641,32.434303 52.008739,32.760281 52.137127,32.862946 
	C51.271355,33.566864 50.277199,34.168118 48.869240,35.105484 
	C47.956963,35.110580 47.458496,34.779564 46.852959,34.264015 
	C46.745892,34.079491 46.331120,33.979382 46.331120,33.979382 
	C46.080921,33.688988 45.830719,33.398598 45.317959,32.970161 
	C45.055397,32.832115 45.100761,32.341980 45.059952,32.099258 
	C47.094372,31.699654 49.169594,31.542768 51.590714,31.208838 
	C51.948250,31.266104 51.959892,31.500418 52.010086,32.084518 
z"/>
<path fill="#E44B00" opacity="1.000000" stroke="none" 
	d="
M49.055187,59.358150 
	C50.646194,59.102406 52.575573,59.094810 54.988785,59.148994 
	C55.472618,59.210773 55.387711,59.587746 55.384754,59.780800 
	C53.385719,59.851334 51.389637,59.728817 49.055187,59.358150 
z"/>
<path fill="#DC4D00" opacity="1.000000" stroke="none" 
	d="
M44.170807,47.991852 
	C45.119144,48.006588 45.992489,47.946590 47.246773,48.103600 
	C47.627712,48.320599 47.670540,48.682755 47.651875,49.007938 
	C50.067806,49.596516 52.502403,49.859909 54.961605,50.302441 
	C54.986210,50.481579 55.010448,50.844688 54.565742,50.862316 
	C51.750202,50.945728 49.379368,51.011513 46.630119,51.042168 
	C45.490082,51.001183 44.728458,50.995335 43.925621,50.780933 
	C43.884411,50.572380 43.777542,50.160862 44.028343,50.108326 
	C44.575169,49.930714 44.871189,49.805637 45.167210,49.680565 
	C44.773075,49.455444 44.378941,49.230328 43.974449,48.755630 
	C43.964096,48.506042 43.905483,48.009892 43.905483,48.009892 
	C43.905483,48.009892 44.095818,47.917118 44.170807,47.991852 
z"/>
<path fill="#BD3200" opacity="1.000000" stroke="none" 
	d="
M54.937000,50.123302 
	C52.502403,49.859909 50.067806,49.596516 48.043503,49.084003 
	C49.693134,48.665535 50.932476,48.496185 52.171818,48.326836 
	C53.116005,48.298676 54.060196,48.270519 55.421898,48.478386 
	C55.839417,48.714409 55.968136,49.145008 55.843521,49.350616 
	C55.497375,49.799145 55.236740,49.988171 54.937000,50.123302 
z"/>
<path fill="#F14F00" opacity="1.000000" stroke="none" 
	d="
M65.673126,47.503624 
	C65.252594,48.070396 64.861336,48.318203 63.931282,48.755592 
	C62.912849,48.957928 62.433228,48.970684 61.649040,48.987099 
	C60.939350,49.003838 60.534218,49.016914 60.161842,48.692997 
	C60.175869,48.131054 60.157150,47.906109 60.138435,47.681164 
	C61.365780,47.307938 62.593128,46.934711 64.035477,46.414368 
	C64.734459,46.573055 65.218430,46.878860 65.673126,47.503624 
z"/>
<path fill="#A36448" opacity="1.000000" stroke="none" 
	d="
M51.723480,48.194038 
	C50.932476,48.496185 49.693134,48.665535 48.062164,48.758820 
	C47.670540,48.682755 47.627712,48.320599 47.578239,48.144699 
	C48.777561,47.999615 50.026352,48.030430 51.723480,48.194038 
z"/>
<path fill="#742A12" opacity="1.000000" stroke="none" 
	d="
M59.768513,47.809570 
	C60.157150,47.906109 60.175869,48.131054 59.811699,48.678432 
	C58.966614,49.045628 58.504425,49.090389 57.778564,49.076164 
	C57.337162,48.987907 57.159428,48.958633 56.997856,48.733410 
	C57.014011,48.537457 57.074184,48.148857 57.074184,48.148857 
	C57.848988,48.078564 58.623787,48.008274 59.768513,47.809570 
z"/>
<path fill="#A36448" opacity="1.000000" stroke="none" 
	d="
M56.727066,48.114601 
	C57.074184,48.148857 57.014011,48.537457 56.742851,48.779514 
	C56.303841,49.062717 56.135986,49.103863 55.968136,49.145008 
	C55.968136,49.145008 55.839417,48.714409 55.775856,48.498474 
	C55.934841,48.215141 56.157394,48.147743 56.727066,48.114601 
z"/>
<path fill="#F9F6F8" opacity="1.000000" stroke="none" 
	d="
M45.889671,33.996933 
	C46.331120,33.979382 46.745892,34.079491 46.839302,34.630089 
	C46.971973,36.164207 47.011234,37.147724 47.050491,38.131245 
	C47.050491,38.131245 47.012676,38.429176 46.892155,38.722225 
	C46.771633,39.015274 46.591244,39.309238 46.591244,39.309238 
	C46.591244,39.309238 46.535351,39.317879 46.513306,39.335770 
	C45.907181,39.507004 45.323101,39.660343 44.430965,39.767826 
	C43.482185,38.045982 42.841461,36.369995 42.072807,34.371078 
	C43.112656,34.036926 44.280437,34.025703 45.889671,33.996933 
z"/>
<path fill="#FD0059" opacity="1.000000" stroke="none" 
	d="
M36.968998,52.508675 
	C35.970917,52.227764 34.972839,51.946857 33.693829,51.557537 
	C33.303360,51.201271 33.239174,50.942177 33.456680,50.526260 
	C34.480003,50.244511 35.266983,50.108345 36.425812,49.992897 
	C37.540600,50.017235 38.283539,50.020863 39.026478,50.024490 
	C39.026478,50.024490 39.003864,49.972050 39.067661,50.227859 
	C39.417244,50.682957 39.703030,50.882244 39.990509,51.284382 
	C39.992207,51.487228 39.979218,51.893150 39.686321,52.014923 
	C38.585281,52.260685 37.777142,52.384678 36.968998,52.508675 
z"/>
<path fill="#FC5D00" opacity="1.000000" stroke="none" 
	d="
M43.984802,49.005211 
	C44.378941,49.230328 44.773075,49.455444 45.167210,49.680565 
	C44.871189,49.805637 44.575169,49.930714 43.682034,50.076569 
	C42.392147,50.002289 41.699375,49.907234 41.006599,49.812176 
	C41.006599,49.812176 41.002548,49.419857 41.373924,49.219086 
	C42.491802,49.013950 43.238300,49.009579 43.984802,49.005211 
z"/>
<path fill="#721308" opacity="1.000000" stroke="none" 
	d="
M40.666531,49.867088 
	C41.699375,49.907234 42.392147,50.002289 43.431232,50.129105 
	C43.777542,50.160862 43.884411,50.572380 43.934181,50.794678 
	C43.983948,51.016975 43.984383,51.045506 43.584801,51.036816 
	C42.119751,51.045929 41.054283,51.063732 39.988815,51.081535 
	C39.703030,50.882244 39.417244,50.682957 39.040871,50.237736 
	C39.409008,49.968536 39.867733,49.945271 40.666531,49.867088 
z"/>
<path fill="#EE0046" opacity="1.000000" stroke="none" 
	d="
M36.053963,49.972183 
	C35.266983,50.108345 34.480003,50.244511 33.456654,50.323044 
	C33.771763,49.814198 34.323246,49.362980 35.352802,49.181091 
	C35.905239,49.624336 35.979603,49.798256 36.053963,49.972183 
z"/>
<path fill="#E14A00" opacity="1.000000" stroke="none" 
	d="
M43.974449,48.755627 
	C43.238300,49.009579 42.491802,49.013950 41.371506,49.022930 
	C40.997707,49.027542 40.984158,48.626919 40.975327,48.427002 
	C41.700775,48.142242 42.435055,48.057396 43.537407,47.991219 
	C43.905483,48.009892 43.964096,48.506042 43.974449,48.755627 
z"/>
<path fill="#8F1905" opacity="1.000000" stroke="none" 
	d="
M36.425812,49.992893 
	C35.979603,49.798256 35.905239,49.624336 35.677734,49.209751 
	C36.538097,49.119591 37.551605,49.270092 38.795799,49.722542 
	C38.283539,50.020863 37.540600,50.017235 36.425812,49.992893 
z"/>
<path fill="#381B11" opacity="1.000000" stroke="none" 
	d="
M46.826118,39.426636 
	C46.591244,39.309238 46.771633,39.015274 46.864372,38.869797 
	C47.143627,38.754692 47.330143,38.785072 47.749626,38.976837 
	C47.675396,39.273491 47.368198,39.408760 46.826118,39.426636 
z"/>
<path fill="#FEB8D2" opacity="1.000000" stroke="none" 
	d="
M62.623360,53.303062 
	C62.511261,53.701916 62.399162,54.100773 62.187691,54.600258 
	C59.630825,55.389416 57.173328,56.077938 54.328583,56.579597 
	C53.941341,56.392731 53.957165,55.987038 54.236572,55.769760 
	C54.532745,54.519291 54.549515,53.486095 54.775742,52.295170 
	C55.114056,52.019325 55.242920,51.901215 55.685383,51.816532 
	C56.573521,51.669189 57.148064,51.488411 58.122593,51.449852 
	C59.327858,51.755638 60.133144,51.919212 60.938427,52.082783 
	C60.938427,52.082783 60.972919,52.016933 60.738930,52.281006 
	C60.647739,52.718212 60.790546,52.891346 60.933578,53.249321 
	C61.180378,53.669353 61.426949,53.904549 62.054768,54.093811 
	C62.498463,53.799610 62.560909,53.551338 62.623360,53.303062 
z"/>
<path fill="#AC0113" opacity="1.000000" stroke="none" 
	d="
M36.896225,52.878944 
	C37.777142,52.384678 38.585281,52.260685 39.957130,52.072746 
	C41.098877,52.429031 41.676926,52.849258 41.944038,53.645981 
	C41.566174,54.341061 41.499249,54.659641 41.432320,54.978218 
	C40.131741,54.681095 38.831158,54.383972 37.187531,54.045235 
	C36.837467,53.752151 36.830456,53.500679 36.896225,52.878944 
z"/>
<path fill="#EA94A7" opacity="1.000000" stroke="none" 
	d="
M41.792084,55.027866 
	C41.499249,54.659641 41.566174,54.341061 42.204140,53.821091 
	C43.199684,53.658314 43.624191,53.696930 44.315292,53.947968 
	C45.419430,54.498631 46.256977,54.836868 47.136356,55.459915 
	C47.463840,55.851875 47.749485,55.959034 48.032448,56.029411 
	C48.029758,55.992630 47.956093,55.988926 47.702465,56.135151 
	C47.421570,56.474636 47.394302,56.667896 47.367039,56.861156 
	C45.628643,56.266609 43.890247,55.672062 41.792084,55.027866 
z"/>
<path fill="#260204" opacity="1.000000" stroke="none" 
	d="
M47.842117,56.918365 
	C47.394302,56.667896 47.421570,56.474636 48.130638,56.126373 
	C50.527344,55.976597 52.242256,55.981819 53.957165,55.987038 
	C53.957165,55.987038 53.941341,56.392731 53.933865,56.595177 
	C52.056660,56.856941 50.186928,56.916260 47.842117,56.918365 
z"/>
<path fill="#5C1000" opacity="1.000000" stroke="none" 
	d="
M61.040489,51.788567 
	C60.133144,51.919212 59.327858,51.755638 58.237709,51.255997 
	C57.973175,50.623997 57.991795,50.327953 58.368568,50.027000 
	C59.803493,49.675941 60.878548,49.329693 61.953602,48.983440 
	C62.433228,48.970684 62.912849,48.957928 63.752022,48.907234 
	C64.146896,49.080406 64.182220,49.291508 64.284302,49.817223 
	C64.071297,50.465111 63.791531,50.798389 63.214001,51.265579 
	C62.325008,51.431114 61.733784,51.462730 61.040489,51.788567 
z"/>
<path fill="#5C1000" opacity="1.000000" stroke="none" 
	d="
M60.933350,53.064480 
	C60.790546,52.891346 60.647739,52.718212 60.702736,52.272541 
	C61.295132,52.265976 61.689732,52.531944 62.353844,53.050488 
	C62.560909,53.551338 62.498463,53.799610 61.969208,53.756287 
	C61.312714,53.331295 61.123032,53.197887 60.933350,53.064480 
z"/>
<path fill="#FAE2EC" opacity="1.000000" stroke="none" 
	d="
M47.302124,37.977127 
	C47.011234,37.147724 46.971973,36.164207 46.946373,34.814613 
	C47.458496,34.779564 47.956963,35.110580 48.756844,35.444443 
	C48.556751,36.239197 48.055252,37.031105 47.302124,37.977127 
z"/>
<path fill="#D13600" opacity="1.000000" stroke="none" 
	d="
M58.008694,50.031803 
	C57.991795,50.327953 57.973175,50.623997 57.837723,51.113785 
	C57.148064,51.488411 56.573521,51.669189 55.593628,51.582520 
	C55.128998,51.158276 55.069725,51.001480 55.010448,50.844688 
	C55.010448,50.844688 54.986210,50.481579 54.961605,50.302441 
	C55.236740,49.988171 55.497375,49.799145 55.843521,49.350616 
	C56.135986,49.103863 56.303841,49.062717 56.726692,48.975468 
	C57.159428,48.958633 57.337162,48.987907 57.767609,49.299911 
	C58.020325,49.582645 58.008694,50.031803 58.008694,50.031803 
z"/>
<path fill="#850309" opacity="1.000000" stroke="none" 
	d="
M54.565742,50.862316 
	C55.069725,51.001480 55.128998,51.158276 55.280029,51.549088 
	C55.242920,51.901215 55.114056,52.019325 54.388885,52.173668 
	C51.540047,52.092117 49.287525,51.974331 47.022736,51.661926 
	C47.010468,51.467312 47.008530,51.077301 47.008530,51.077301 
	C49.379368,51.011513 51.750202,50.945728 54.565742,50.862316 
z"/>
<path fill="#9E0015" opacity="1.000000" stroke="none" 
	d="
M46.630119,51.042168 
	C47.008530,51.077301 47.010468,51.467312 46.644268,51.713898 
	C45.514633,51.977646 44.751194,51.994801 43.964142,51.770424 
	C43.940529,51.528893 43.984383,51.045506 43.984383,51.045506 
	C43.984383,51.045506 43.983948,51.016975 43.975391,51.003231 
	C44.728458,50.995335 45.490082,51.001183 46.630119,51.042168 
z"/>
<path fill="#EF4C00" opacity="1.000000" stroke="none" 
	d="
M58.368568,50.027000 
	C58.008694,50.031803 58.020325,49.582645 58.031281,49.358898 
	C58.504425,49.090389 58.966614,49.045628 59.778946,49.015430 
	C60.534218,49.016914 60.939350,49.003838 61.649040,48.987099 
	C60.878548,49.329693 59.803493,49.675941 58.368568,50.027000 
z"/>
<path fill="#F90038" opacity="1.000000" stroke="none" 
	d="
M43.584801,51.036816 
	C43.984383,51.045506 43.940529,51.528893 43.968513,52.057850 
	C44.013897,52.969719 44.031300,53.352634 44.048702,53.735546 
	C43.624191,53.696930 43.199684,53.658314 42.515076,53.444588 
	C41.676926,52.849258 41.098877,52.429031 40.250023,51.950977 
	C39.979218,51.893150 39.992207,51.487228 39.990509,51.284382 
	C41.054283,51.063732 42.119751,51.045929 43.584801,51.036816 
z"/>
<path fill="#FF0059" opacity="1.000000" stroke="none" 
	d="
M44.315292,53.947968 
	C44.031300,53.352634 44.013897,52.969719 43.992126,52.299385 
	C44.751194,51.994801 45.514633,51.977646 46.656532,51.908516 
	C49.287525,51.974331 51.540047,52.092117 54.179428,52.331406 
	C54.549515,53.486095 54.532745,54.519291 54.236572,55.769760 
	C52.242256,55.981819 50.527344,55.976597 48.384262,55.980148 
	C47.956093,55.988926 48.029758,55.992630 47.931816,55.823677 
	C47.678089,55.355099 47.431637,55.195225 47.094521,55.175110 
	C46.256977,54.836868 45.419430,54.498631 44.315292,53.947968 
z"/>
<path fill="#A45462" opacity="1.000000" stroke="none" 
	d="
M60.933578,53.249321 
	C61.123032,53.197887 61.312714,53.331295 61.587959,53.802219 
	C61.426949,53.904549 61.180378,53.669353 60.933578,53.249321 
z"/>
<path fill="#260204" opacity="1.000000" stroke="none" 
	d="
M47.136356,55.459915 
	C47.431637,55.195225 47.678089,55.355099 47.934502,55.860458 
	C47.749485,55.959034 47.463840,55.851875 47.136356,55.459915 
z"/>
</svg>